<svg width="18" height="18" viewBox="0 0 18 18" fill="none" xmlns="http://www.w3.org/2000/svg">
<path d="M9.38296 4.39213H7.68577C7.44261 4.39213 7.26142 4.16783 7.31254 3.9301L7.64095 2.40306C7.67878 2.22717 7.83427 2.10156 8.01418 2.10156H9.88004H14.2318C15.1227 2.10156 15.7869 2.92274 15.6007 3.79393L14.5387 8.76256C14.338 9.70184 13.5081 10.3731 12.5476 10.3731H8.08457L7.11834 14.8245C6.92781 15.7022 6.15114 16.3284 5.25297 16.3284H3.02051H2.31621C1.91044 16.3284 1.60834 15.9537 1.69441 15.5572L1.97618 14.259C2.03969 13.9665 2.29858 13.7577 2.59797 13.7577H3.57849H5.19973L5.92747 10.3731L6.11162 9.51639C6.27547 8.75413 6.94931 8.20975 7.72897 8.20975H8.55432H12.4244L13.2485 4.39213H9.38296Z" fill="#1671D9"/>
</svg>
