<svg width="114" height="35" viewBox="0 0 114 35" fill="none" xmlns="http://www.w3.org/2000/svg">
<path d="M26.1685 14.4117H23.9127C23.5895 14.4117 23.3486 14.1136 23.4166 13.7976L23.8531 11.7679C23.9034 11.5341 24.11 11.3672 24.3492 11.3672H26.8292H32.6133C33.7974 11.3672 34.6802 12.4587 34.4328 13.6166L33.0213 20.2207C32.7544 21.4691 31.6514 22.3613 30.3748 22.3613H24.4427L23.1585 28.2779C22.9052 29.4445 21.8729 30.2768 20.6791 30.2768H17.7118H16.7757C16.2364 30.2768 15.8349 29.7788 15.9493 29.2517L16.3238 27.5263C16.4082 27.1374 16.7523 26.86 17.1502 26.86H18.4535H20.6084L21.5756 22.3613L21.8204 21.2226C22.0382 20.2094 22.9338 19.4859 23.9701 19.4859H25.0671H30.211L31.3064 14.4117H26.1685Z" fill="#1671D9"/>
<path fill-rule="evenodd" clip-rule="evenodd" d="M18.6622 6.80002H20.8217H22.1249C22.5229 6.80002 22.867 6.52261 22.9514 6.13375L23.2158 4.91574C23.3302 4.38868 22.9287 3.89062 22.3894 3.89062H21.4533H18.34C17.1462 3.89062 16.1139 4.72292 15.8607 5.88958L14.6719 11.3668H14.6484H8.9357C7.65907 11.3668 6.55607 12.259 6.28924 13.5074L4.87774 20.1114C4.63025 21.2694 5.51308 22.3609 6.69718 22.3609H12.262H12.2854H14.9068C15.1459 22.3609 15.3526 22.1939 15.4029 21.9601L15.8028 20.0995C15.8707 19.7836 15.6299 19.4855 15.3067 19.4855H12.9094H12.886H7.96442L9.05987 14.4113H13.9874H14.0108H15.2494C16.2856 14.4113 17.1812 13.6878 17.3991 12.6748L17.6804 11.3668L18.6622 6.80002Z" fill="#1671D9"/>
<path fill-rule="evenodd" clip-rule="evenodd" d="M42.7929 11.3698C46.6831 11.4205 47.3428 11.4543 47.8333 11.725C48.1208 11.8772 48.4929 12.2493 48.6282 12.5199C48.7635 12.8075 48.8819 13.4164 48.8819 13.873C48.8819 14.3466 48.6959 15.5983 48.4591 16.6638C48.2223 17.7294 47.884 19.0149 47.681 19.5054C47.495 19.979 47.1567 20.6048 46.9537 20.8923C46.7508 21.1799 46.1926 21.5858 45.7359 21.8226C44.9072 22.2454 44.8733 22.2454 40.425 22.2454C36.5009 22.2454 35.8751 22.2116 35.3846 21.941C35.0971 21.7888 34.725 21.4843 34.5896 21.2813C34.4374 21.0445 34.3359 20.5033 34.3359 19.8775C34.3359 19.3193 34.4543 18.2199 34.6066 17.425C34.7419 16.63 35.0294 15.4291 35.2324 14.7356C35.503 13.8223 35.7905 13.2641 36.281 12.7229C36.6531 12.3 37.2621 11.8095 37.6342 11.6404C38.2431 11.3698 38.7336 11.3359 42.7929 11.3698ZM38.1416 15.2769C38.0063 15.6659 37.7695 16.5962 37.6342 17.3404C37.4312 18.3552 37.4143 18.8119 37.5327 19.1671C37.668 19.4885 37.871 19.6576 38.26 19.7253C38.5644 19.776 39.9852 19.7929 41.406 19.7591C43.9938 19.7083 44.0107 19.7083 44.4167 19.2517C44.6365 18.981 44.9748 18.3045 45.1439 17.7294C45.33 17.1374 45.533 16.1902 45.6175 15.6152C45.7359 14.6849 45.719 14.5327 45.4146 14.2113C45.0932 13.8899 44.9072 13.8561 42.184 13.873C39.5623 13.873 39.2579 13.9069 38.852 14.2113C38.5983 14.3974 38.2769 14.871 38.1416 15.2769ZM53.4487 11.3359L53.3472 12.0632C53.2965 12.4523 53.1442 13.1965 53.0089 13.7039C52.8905 14.2113 52.6368 15.3953 52.4339 16.3256C52.2478 17.2558 52.1125 18.0508 52.1632 18.1015C52.214 18.1523 52.4339 18.0677 52.6368 17.8985C52.8567 17.7463 53.787 16.8837 56.4086 14.3635L61.1445 14.3804L61.5505 15.1077C61.7704 15.4968 62.3116 16.3594 62.7345 17.0359C63.1573 17.7125 63.5802 18.2368 63.6816 18.203C63.7831 18.1861 63.9015 17.814 63.9861 17.408C64.0537 17.0021 64.2905 15.9027 64.5104 14.9724C64.7303 14.0422 65.0009 12.8413 65.2885 11.3359H66.7261C68.0116 11.3359 68.1469 11.3698 68.0793 11.6404C68.0285 11.7926 67.8594 12.6214 67.6733 13.4502C67.4873 14.2959 67.2505 15.3953 67.149 15.9027C67.0306 16.4101 66.7769 17.5941 66.557 18.5244C66.3371 19.4546 66.1172 20.5202 66.0496 20.8923C65.9819 21.2644 65.8466 21.6704 65.7451 21.7888C65.5929 21.941 65.0009 22.0086 63.7662 22.0086C62.1425 22.0086 61.9564 21.9748 61.635 21.6196C61.4321 21.3997 61.246 21.146 61.2122 21.0615C61.1784 20.96 60.7048 20.1481 59.1994 17.5941H56.9161L52.2647 21.9917H50.4042C49.3386 21.9917 48.5098 21.9241 48.4591 21.8226C48.4083 21.738 48.4929 21.2137 48.6451 20.6894C48.7804 20.1481 48.9665 19.3362 49.0511 18.8626C49.1356 18.406 49.457 16.8837 49.7784 15.4799C50.0997 14.0929 50.4211 12.6383 50.4888 12.2662C50.5564 11.8941 50.641 11.5389 50.6748 11.4712C50.7256 11.3867 51.3683 11.3359 53.4487 11.3359ZM69.5339 11.3359H74.8956C77.9063 11.3359 80.5279 11.4036 80.9 11.5051C81.2383 11.6066 81.7119 11.8772 81.9487 12.1478C82.2024 12.4184 82.4054 12.9089 82.473 13.3656C82.5407 13.8392 82.473 14.7018 82.287 15.649C82.1178 16.4947 81.7965 17.7802 81.5766 18.5244C81.2891 19.5223 81.0184 20.0635 80.5448 20.571C80.1389 21.0107 79.5807 21.3828 78.9549 21.6196C78.0247 21.9748 77.7033 21.9917 72.6968 21.9917C69.7876 21.9917 67.3689 21.9579 67.3181 21.9072C67.2674 21.8733 67.352 21.2306 67.5042 20.5202C67.6564 19.7929 67.9609 18.4398 68.1638 17.5095C68.3668 16.5793 68.6713 15.2092 68.8573 14.465C69.0264 13.7208 69.1787 12.9935 69.1787 12.8582C69.1787 12.7229 69.2632 12.3169 69.3478 11.9787L69.5339 11.3359ZM71.5805 15.7336C71.3606 16.6131 71.1069 17.7632 71.0054 18.3045C70.887 18.8457 70.8362 19.3193 70.887 19.3701C70.9208 19.4208 72.3754 19.4546 74.1006 19.4546C77.0775 19.4546 77.2466 19.4377 77.8217 19.0656C78.2953 18.7612 78.4813 18.4398 78.8027 17.4926C79.0226 16.8499 79.2425 15.9365 79.2932 15.4799C79.3778 14.7526 79.344 14.5665 79.0226 14.2451C78.6674 13.873 78.5659 13.873 75.3692 13.873C73.5594 13.873 72.054 13.9238 72.0202 13.9914C71.9695 14.0591 71.7834 14.8371 71.5805 15.7336ZM84.4012 11.3359H90.0674C93.1965 11.3359 95.7503 11.3698 95.7503 11.4205C95.7503 11.4543 95.615 11.9618 95.1583 13.5348H86.7861L86.617 14.2959C86.5155 14.7018 86.4478 15.1585 86.4478 15.3107C86.4478 15.5137 86.9891 15.5644 90.338 15.5644C92.4692 15.5644 94.2281 15.6152 94.2281 15.6828C94.2281 15.7505 94.1097 16.2072 93.7206 17.5941H89.8306C87.395 17.5941 85.9066 17.6448 85.8558 17.7632C85.8051 17.8478 85.7036 18.3045 85.5175 19.6069L89.6615 19.6576C93.2472 19.6914 93.7885 19.7422 93.7377 19.9621C93.7039 20.0974 93.6361 20.5202 93.5853 20.8923C93.5346 21.2644 93.4164 21.6534 93.3149 21.7718C93.1626 21.9579 91.9279 21.9917 87.6656 21.9917C83.454 21.9917 82.2024 21.941 82.1348 21.7718C82.1009 21.6534 82.1686 21.0615 82.3039 20.4695C82.4223 19.8606 82.6083 18.9472 82.7267 18.4398C82.8282 17.9155 83.0989 16.7484 83.3187 15.8181C83.5386 14.8879 83.8092 13.6701 83.9276 13.1119C84.0291 12.5537 84.1983 11.911 84.2659 11.708L84.4012 11.3359ZM96.7651 11.3359H102.178C106.609 11.3359 107.692 11.3867 108.182 11.5896C108.588 11.7588 108.859 12.0463 109.045 12.4861C109.231 12.9258 109.265 13.3318 109.18 13.873C109.129 14.2959 108.96 14.9894 108.825 15.446C108.707 15.8858 108.351 16.5116 108.047 16.833C107.742 17.1712 107.286 17.4757 107.032 17.5095C106.778 17.5603 106.524 17.6787 106.491 17.7632C106.44 17.8647 106.66 18.0508 106.998 18.1861C107.319 18.3214 107.658 18.6089 107.742 18.8288C107.827 19.0487 107.827 19.4885 107.726 19.9621C107.641 20.3849 107.489 21.0107 107.252 21.9917H104.376L104.63 19.2855H98.0337L97.8984 19.9959C97.8307 20.4018 97.6954 21.0107 97.4417 21.9917H96.004C94.7355 21.9917 94.5663 21.9579 94.5663 21.7042C94.5663 21.535 94.668 20.9431 94.8033 20.3849C94.9386 19.8267 95.2429 18.4567 95.4966 17.3404C95.7334 16.2241 96.0888 14.5834 96.2748 13.7039C96.4609 12.8244 96.6638 11.9279 96.6977 11.725L96.7651 11.3359ZM98.8626 15.3953C98.7273 15.9873 98.6595 16.5454 98.7441 16.6131C98.8117 16.6977 100.266 16.7315 101.958 16.6977C104.783 16.6638 105.07 16.63 105.375 16.3256C105.561 16.1395 105.797 15.6321 105.916 15.1923C106.119 14.5158 106.102 14.3635 105.882 14.1267C105.679 13.8899 105.205 13.8561 102.465 13.8561C100.08 13.8561 99.2684 13.9238 99.2177 14.076C99.1669 14.1944 99.0149 14.7864 98.8626 15.3953Z" fill="#1671D9"/>
</svg>
