<!-- Square canvas (168 x 168) with your logo vertically centered -->
<svg xmlns="http://www.w3.org/2000/svg" viewBox="0 0 168 168">
  <g transform="translate(0,64)"> 
    <path d="M30.5144 11.9382C30.737 11.9385 30.737 11.9385 30.9642 11.9388C31.1206 11.9374 31.2771 11.936 31.4384 11.9345C31.9573 11.9305 32.4762 11.9297 32.9952 11.9292C33.3555 11.9279 33.7158 11.9265 34.0761 11.925C34.8324 11.9225 35.5886 11.9217 36.3448 11.9219C37.3133 11.922 38.2817 11.9162 39.2501 11.909C39.9948 11.9043 40.7394 11.9034 41.484 11.9037C41.841 11.9032 42.198 11.9013 42.555 11.898C43.0549 11.8939 43.5546 11.8951 44.0546 11.8977C44.2018 11.8953 44.3489 11.8929 44.5005 11.8905C45.5 11.9034 46.0086 12.1323 46.7082 12.8421C47.067 13.7446 46.8247 14.5791 46.6078 15.4926C46.573 15.6469 46.5381 15.8012 46.5022 15.9603C46.3887 16.4608 46.2722 16.9607 46.1555 17.4605C46.0766 17.8042 45.9979 18.148 45.9193 18.4919C45.8017 19.0058 45.6839 19.5196 45.5651 20.0332C45.3405 21.0045 45.1238 21.9769 44.917 22.9523C44.8719 23.1623 44.8267 23.3724 44.7802 23.5888C44.7 23.9633 44.6214 24.3381 44.5448 24.7133C44.2458 26.0798 43.8932 27.1645 42.7285 28.0366C41.6619 28.6132 40.5569 28.5259 39.3734 28.5032C39.1372 28.5021 38.901 28.5009 38.6576 28.4996C37.9068 28.4949 37.1562 28.4844 36.4055 28.4736C35.895 28.4694 35.3844 28.4656 34.8739 28.4621C33.6256 28.4529 32.3774 28.4388 31.1292 28.421C31.0882 28.8357 31.0882 28.8357 31.0464 29.2588C30.9402 30.2112 30.7691 31.1339 30.5593 32.0682C30.5242 32.2261 30.4891 32.384 30.453 32.5466C30.379 32.877 30.3045 33.2073 30.2295 33.5374C30.1159 34.0399 30.0064 34.5431 29.8969 35.0464C29.8241 35.3695 29.751 35.6926 29.6777 36.0156C29.6459 36.1643 29.6141 36.313 29.5813 36.4662C29.303 37.6586 28.8715 38.5999 27.866 39.3289C26.9876 39.7462 26.2492 39.8163 25.2789 39.8174C24.9296 39.8178 24.9296 39.8178 24.5733 39.8182C24.2102 39.817 24.2102 39.817 23.8397 39.8157C23.596 39.8166 23.3523 39.8174 23.1012 39.8182C22.8689 39.8179 22.6366 39.8177 22.3973 39.8174C22.1844 39.8172 21.9714 39.8169 21.752 39.8167C21.2345 39.7894 21.2345 39.7894 20.8134 39.5789C20.8971 38.5242 21.0016 37.4749 21.195 36.4342C21.2224 36.2846 21.2498 36.1351 21.2781 35.981C21.5126 35.4161 21.7482 35.2361 22.2871 34.9473C22.968 34.8856 22.968 34.8856 23.7082 34.9079C24.0778 34.9164 24.0778 34.9164 24.4549 34.9251C24.6427 34.9324 24.8305 34.9398 25.0239 34.9473C25.0701 34.7196 25.1162 34.4919 25.1637 34.2574C25.5826 32.2142 26.0286 30.1769 26.4976 28.1447C26.5475 27.9201 26.5973 27.6956 26.6486 27.4642C26.9804 26.0506 27.276 24.9251 28.4976 24.0394C29.3099 23.6536 29.9933 23.5526 30.8893 23.555C31.0915 23.555 31.2938 23.555 31.5022 23.5551C31.7189 23.5561 31.9355 23.5572 32.1588 23.5583C32.3819 23.5586 32.605 23.5589 32.8349 23.5592C33.547 23.5604 34.2592 23.5631 34.9713 23.5657C35.4543 23.5668 35.9373 23.5678 36.4203 23.5686C37.604 23.5709 38.7876 23.5745 39.9713 23.5789C39.9895 23.4478 40.0077 23.3167 40.0264 23.1817C40.3663 20.9461 40.914 18.8616 41.445 16.6315C37.1376 16.6315 32.8303 16.6315 28.3924 16.6315C28.1812 15.5758 28.2785 14.9561 28.5634 13.9605C28.601 13.8181 28.6386 13.6758 28.6773 13.5291C29.0135 12.3093 29.2226 11.9553 30.5144 11.9382Z" fill="black"/>
    <path d="M21.6457 0.800916C21.7847 0.801512 21.9237 0.802108 22.0669 0.802722C22.5087 0.80507 22.9505 0.810353 23.3924 0.815719C23.6928 0.817832 23.9933 0.819753 24.2937 0.821476C25.0284 0.826106 25.763 0.833369 26.4976 0.842035C26.5079 1.82324 26.4598 2.67777 26.2213 3.63151C26.17 3.84536 26.1187 4.05921 26.0659 4.27954C25.7579 5.14647 25.7579 5.14647 25.2345 5.47361C24.5281 5.53529 24.5281 5.53529 23.7213 5.51309C23.4535 5.50739 23.1856 5.50169 22.9097 5.49582C22.6015 5.48483 22.6015 5.48483 22.2871 5.47361C22.2599 5.71579 22.2328 5.95796 22.2048 6.20748C22.0909 7.11522 21.9125 7.99817 21.7098 8.88973C21.6742 9.0479 21.6386 9.20607 21.602 9.36904C21.527 9.70066 21.4516 10.0322 21.3758 10.3636C21.2609 10.8681 21.1485 11.3731 21.0363 11.8782C20.9627 12.2023 20.889 12.5263 20.8151 12.8503C20.7822 12.9996 20.7492 13.149 20.7153 13.3029C20.4309 14.5272 20.1427 15.495 19.1292 16.2762C18.3273 16.7273 17.7521 16.869 16.8474 16.8853C16.5377 16.8916 16.5377 16.8916 16.2217 16.898C15.8881 16.9033 15.8881 16.9033 15.5478 16.9086C15.3197 16.913 15.0917 16.9174 14.8567 16.9219C14.1274 16.9357 13.398 16.9481 12.6687 16.9605C12.1746 16.9695 11.6805 16.9787 11.1864 16.988C9.97436 17.0107 8.76233 17.0316 7.55028 17.0526C7.06396 19.2062 6.57765 21.3599 6.07659 23.5789C7.00119 23.5916 7.92579 23.6044 8.8784 23.6175C9.61371 23.6283 10.349 23.6392 11.0843 23.6503C11.8616 23.6619 12.6388 23.6732 13.4161 23.6836C14.1641 23.6936 14.9122 23.7046 15.6602 23.7163C15.9462 23.7206 16.2321 23.7246 16.5181 23.7282C16.9174 23.7332 17.3167 23.7397 17.7159 23.7462C17.9436 23.7495 18.1713 23.7527 18.4058 23.7561C18.9187 23.7894 18.9187 23.7894 19.1292 23.9999C19.1177 25.4282 18.8434 26.8929 18.2871 28.2105C17.6644 28.5218 17.03 28.4575 16.3469 28.4616C16.1904 28.4633 16.0339 28.465 15.8727 28.4668C15.3538 28.472 14.8349 28.4755 14.3159 28.4785C14.0502 28.4802 14.0502 28.4802 13.7791 28.4819C12.8415 28.4876 11.9039 28.4917 10.9662 28.4947C9.99774 28.4982 9.02939 28.5076 8.06095 28.5183C7.3163 28.5254 6.57169 28.5279 5.82702 28.529C5.47003 28.5305 5.11305 28.5337 4.75609 28.5387C4.25608 28.5454 3.75648 28.5454 3.25644 28.5438C3.1093 28.5473 2.96217 28.5507 2.81057 28.5543C2.00931 28.5441 1.67301 28.4347 1.03548 27.9332C0.562595 27.3157 0.479876 26.9598 0.531499 26.1888C0.684474 25.1077 0.91932 24.0485 1.16459 22.9851C1.25196 22.6007 1.25196 22.6007 1.3411 22.2085C1.46456 21.6686 1.58901 21.1289 1.71439 20.5895C1.84247 20.0383 1.96795 19.4867 2.09104 18.9344C2.26981 18.1347 2.45339 17.3361 2.63827 16.5378C2.6927 16.2917 2.74714 16.0456 2.80322 15.7921C3.18975 14.1636 3.54946 13.2352 4.93813 12.2406C5.98916 11.888 6.98055 11.9222 8.08153 11.9383C8.42931 11.9396 8.42931 11.9396 8.78412 11.941C9.52201 11.9445 10.2598 11.9524 10.9976 11.9605C11.499 11.9636 12.0004 11.9665 12.5018 11.9691C13.7285 11.976 14.9552 11.9866 16.1819 11.9999C16.2079 11.8375 16.234 11.6751 16.2609 11.5078C16.5425 9.78161 16.892 8.08553 17.2964 6.38418C17.3696 6.07349 17.4412 5.76241 17.5113 5.451C17.6143 4.99329 17.7219 4.5369 17.8307 4.08052C17.8931 3.81216 17.9554 3.5438 18.0197 3.2673C18.3803 2.26805 18.8614 1.61023 19.7351 0.976184C20.3808 0.782295 20.9724 0.795211 21.6457 0.800916Z" fill="black"/>
  </g>
</svg>